/* XPM */
static char *iconapp_xpm[] = {
"16 16 196 2",
"  	c None",
"BA	c #FFFFFF",
"CA	c #868698",
"DA	c #424249",
"EA	c #BCBCC9",
"FA	c #BDBDC8",
"GA	c #D2D2DA",
"HA	c #DEDEE7",
"IA	c #75757F",
"JA	c #000000",
"KA	c #555560",
"LA	c #B2B2C4",
"MA	c #A6A6B7",
"NA	c #707081",
"OA	c #0A0A0B",
"PA	c #9A9AAF",
"QA	c #9090A2",
"RA	c #0B0B0D",
"SA	c #7F7F88",
"TA	c #CACAD6",
"UA	c #F9F9FB",
"VA	c #FEFEFE",
"WA	c #646469",
"XA	c #767685",
"YA	c #E6E6ED",
"ZA	c #DDDDE7",
"aA	c #444450",
"bA	c #9C9CB0",
"cA	c #9595A8",
"dA	c #08080B",
"eA	c #060606",
"fA	c #9F9FAA",
"gA	c #57575B",
"hA	c #222228",
"iA	c #D5D5E0",
"jA	c #787881",
"kA	c #A0A0B6",
"lA	c #9E9EB5",
"mA	c #C0C0CF",
"nA	c #F1F1F5",
"oA	c #868596",
"pA	c #3B3D4A",
"qA	c #AAAEBB",
"rA	c #81818B",
"sA	c #93939F",
"tA	c #9B9BA7",
"uA	c #050508",
"vA	c #35353D",
"wA	c #28282E",
"xA	c #5C5C68",
"yA	c #E8E8F0",
"zA	c #ECF0FC",
"0A	c #EDDBC5",
"1A	c #E3C59F",
"2A	c #F8F9FE",
"3A	c #F8F8F9",
"4A	c #C8C8D2",
"5A	c #F6F6F9",
"6A	c #B8B8C2",
"7A	c #131316",
"8A	c #64646E",
"9A	c #101012",
"+A	c #06060A",
"/A	c #A3A7BC",
"AB	c #ECDAC4",
"BB	c #F0AC5C",
"CB	c #E7D3BE",
"DB	c #F6F8FD",
"EB	c #FDFDFD",
"FB	c #F7F7F9",
"GB	c #E9E9F1",
"HB	c #484857",
"IB	c #A6A6B9",
"JB	c #85859B",
"KB	c #78798E",
"LB	c #D8D7D8",
"MB	c #EE9B41",
"NB	c #FECC8C",
"OB	c #E6DBCC",
"PB	c #F7F8FB",
"QB	c #F6F6F8",
"RB	c #C9C9D3",
"SB	c #EEF0F6",
"TB	c #EDEDF1",
"UB	c #88889A",
"VB	c #393947",
"WB	c #23232B",
"XB	c #ABABBC",
"YB	c #CACAD3",
"ZB	c #CBD0E4",
"aB	c #E1C49C",
"bB	c #F57F04",
"cB	c #FEC252",
"dB	c #E3CC97",
"eB	c #F2F5FC",
"fB	c #F0F1F6",
"gB	c #B8A788",
"hB	c #C5BFBE",
"iB	c #E2E3EE",
"jB	c #B3B3C5",
"kB	c #2D2D35",
"lB	c #9A9AAC",
"mB	c #F7F7FD",
"nB	c #E8EEFD",
"oB	c #DDBB87",
"pB	c #F68B00",
"qB	c #FEB705",
"rB	c #E0C961",
"sB	c #EBEDFC",
"tB	c #E2E6F6",
"uB	c #D1B252",
"vB	c #D0A22F",
"wB	c #B8B9CA",
"xB	c #C6C6D3",
"yB	c #A9A9B9",
"zB	c #A4A4B8",
"0B	c #282830",
"1B	c #121216",
"2B	c #20202A",
"3B	c #575A6D",
"4B	c #E2CEB5",
"5B	c #F5A403",
"6B	c #FECF00",
"7B	c #DCCF3F",
"8B	c #E2E3F8",
"9B	c #D7DAF2",
"+B	c #C9B338",
"/B	c #FEBD00",
"AC	c #B39047",
"BC	c #A4A7C0",
"CC	c #A7A7BB",
"DC	c #76768F",
"EC	c #111118",
"FC	c #101116",
"GC	c #B3B5C9",
"HC	c #EBBC47",
"IC	c #FEDC00",
"JC	c #D7D255",
"KC	c #B9BCD6",
"LC	c #B2B2B9",
"MC	c #CAC32E",
"NC	c #FED100",
"OC	c #D5A348",
"PC	c #8283A2",
"QC	c #72728B",
"RC	c #525267",
"SC	c #1A1A24",
"TC	c #050506",
"UC	c #60606B",
"VC	c #9696A6",
"WC	c #B1B2C4",
"XC	c #D6CFD0",
"YC	c #EBC548",
"ZC	c #EBD242",
"aC	c #E6DDA1",
"bC	c #F1E374",
"cC	c #F7D81B",
"dC	c #EBC550",
"eC	c #AEA9B9",
"fC	c #8586A2",
"gC	c #1E1E28",
"hC	c #7B7B8B",
"iC	c #89899C",
"jC	c #C4C4D1",
"kC	c #FDFDFE",
"lC	c #A6A7BD",
"mC	c #9B9AB3",
"nC	c #CFB9A2",
"oC	c #D3BE90",
"pC	c #D2B989",
"qC	c #C4B09E",
"rC	c #8484A1",
"sC	c #989AB1",
"tC	c #DDDDE8",
"uC	c #616175",
"vC	c #020203",
"wC	c #5C5C65",
"xC	c #8B8B9C",
"yC	c #1C1C25",
"zC	c #030307",
"0C	c #5A5C73",
"1C	c #B2B3CC",
"2C	c #9FA1BD",
"3C	c #292B3F",
"4C	c #020305",
"5C	c #393844",
"6C	c #87879B",
"7C	c #3A3A47",
"8C	c #17171D",
"9C	c #AFAFC0",
"+C	c #090910",
"/C	c #030304",
"AD	c #22222F",
"BD	c #67677C",
"CD	c #414153",
"DD	c #000002",
"                                ",
"          DDDDDDDDDDDD          ",
"        DDBABABABABABADD        ",
"      DDBA            BADD      ",
"    DDBA                BADD    ",
"    DDBA                BADD    ",
"    DDBA                BADD    ",
"    DDBA                BADD    ",
"      DDBABABABABABABABADD      ",
"    DDBADDDDDDDDDDDDDDDDBADD    ",
"  DDBADD                DDBADD  ",
"  DDBADD                DDBADD  ",
"  DDBADD                DDBADD  ",
"DDBABABADD            DDBABABADD",
"DDDDDDDDDD            DDDDDDDDDD",
"                                "
};
